<svg width="339" height="376" viewBox="0 0 339 376" fill="none" xmlns="http://www.w3.org/2000/svg">
<path opacity="0.29" d="M331.3 271.668L158.4 371.468C150.2 376.168 137.9 376.668 130.8 372.568L13.2001 304.668C6.10009 300.568 7.00009 293.468 15.2001 288.768L188.1 188.968C196.3 184.268 208.6 183.768 215.7 187.868L333.3 255.768C340.4 259.768 339.5 266.868 331.3 271.668Z" fill="#000C21"/>
<path d="M15.6001 254.468V121.368C15.6001 116.968 18.2001 111.968 21.5001 110.068L180.4 17.5679C183.7 15.6679 186.3 17.6679 186.3 22.0679V155.268C186.3 159.668 183.7 164.668 180.4 166.568L21.5001 258.968C18.2001 260.868 15.6001 258.868 15.6001 254.468Z" fill="url(#paint0_linear)"/>
<path d="M89.5001 132.168C89.5001 131.068 88.8001 130.568 88.0001 130.968L20.6001 169.868C19.8001 170.368 19.1001 171.668 19.1001 172.768C19.1001 173.868 19.8001 174.368 20.6001 173.968L88.0001 135.068C88.8001 134.568 89.5001 133.268 89.5001 132.168Z" fill="url(#paint1_linear)"/>
<path d="M89.5001 145.768C89.5001 144.668 88.8001 144.168 88.0001 144.568L20.6001 183.468C19.8001 183.968 19.1001 185.268 19.1001 186.368C19.1001 187.468 19.8001 187.968 20.6001 187.568L88.0001 148.668C88.8001 148.168 89.5001 146.868 89.5001 145.768Z" fill="url(#paint2_linear)"/>
<path d="M89.5001 159.368C89.5001 158.268 88.8001 157.768 88.0001 158.168L20.6001 197.068C19.8001 197.568 19.1001 198.868 19.1001 199.968C19.1001 201.068 19.8001 201.568 20.6001 201.168L87.9001 162.268C88.8001 161.768 89.5001 160.468 89.5001 159.368Z" fill="url(#paint3_linear)"/>
<path d="M89.5001 172.968C89.5001 171.868 88.8001 171.368 88.0001 171.768L20.6001 210.668C19.8001 211.168 19.1001 212.468 19.1001 213.568C19.1001 214.668 19.8001 215.168 20.6001 214.768L88.0001 175.868C88.8001 175.368 89.5001 174.068 89.5001 172.968Z" fill="url(#paint4_linear)"/>
<path d="M89.5001 186.568C89.5001 185.468 88.8001 184.968 88.0001 185.368L20.6001 224.268C19.8001 224.768 19.1001 226.068 19.1001 227.168C19.1001 228.268 19.8001 228.768 20.6001 228.368L88.0001 189.468C88.8001 188.968 89.5001 187.668 89.5001 186.568Z" fill="url(#paint5_linear)"/>
<path d="M182 131.168V83.1679C182 78.9679 179.4 77.0679 176.3 78.8679L114.9 114.268C111.7 116.068 109.2 120.968 109.2 125.168V173.168C109.2 177.368 111.8 179.268 114.9 177.468L176.2 142.068C179.4 140.268 182 135.368 182 131.168Z" stroke="#4296EA" stroke-width="1.5" stroke-miterlimit="10"/>
<path d="M338.2 245.368L337 246.068C336.2 244.868 335 243.668 333.3 242.668L215.7 174.768C208.6 170.668 196.3 171.168 188.1 175.868L15.2 275.768C12.3 277.468 10.4 279.368 9.30002 281.468L8.50002 280.268V284.568C8.40002 287.268 10 289.768 13.3 291.668L130.9 359.568C138 363.668 150.3 363.168 158.5 358.468L331.4 258.668C335.8 256.168 338.1 252.868 338.1 249.768L338.2 249.668V245.368Z" fill="#0E46AA"/>
<path d="M331.3 254.668L158.4 354.468C150.2 359.168 137.9 359.668 130.8 355.568L13.2001 287.668C6.10009 283.568 7.00009 276.468 15.2001 271.768L188.1 171.968C196.3 167.268 208.6 166.768 215.7 170.868L333.3 238.768C340.4 242.768 339.5 249.868 331.3 254.668Z" fill="#4296EA"/>
<path d="M177.8 46.868V42.268C177.8 38.068 175.2 36.168 172.1 37.968L20.5999 125.468C17.3999 127.268 14.8999 132.168 14.8999 136.368V140.968C14.8999 145.168 17.4999 147.068 20.5999 145.268L172.1 57.868C175.2 55.968 177.8 51.068 177.8 46.868Z" fill="url(#paint6_linear)"/>
<path d="M250 215.868L99.3 302.868C93.4 306.268 84.6 306.568 79.5 303.668L43.7 283.068C38.6 280.168 39.3 275.068 45.1 271.668L195.8 184.668C201.7 181.268 210.5 180.968 215.6 183.868L251.4 204.468C256.4 207.368 255.8 212.468 250 215.868Z" stroke="white" stroke-width="2.1461" stroke-miterlimit="10"/>
<path d="M223.3 305.168C217.4 308.568 208.6 308.868 203.5 305.968L192 299.368C186.9 296.468 187.6 291.368 193.4 287.968L224.2 270.268C230.1 266.868 238.9 266.568 244 269.468L255.5 276.068C260.6 278.968 259.9 284.068 254.1 287.468L237.1 297.268" stroke="white" stroke-width="2.1461" stroke-miterlimit="10"/>
<path d="M16.4 271.668L182.3 175.868C188.9 172.068 194.2 161.868 194.2 153.068V13.3679C194.2 4.56793 188.9 0.56793 182.3 4.36793L16.4 100.168C9.8 103.968 4.5 114.168 4.5 122.968V262.668C4.5 271.468 9.8 275.468 16.4 271.668Z" stroke="#4296EA" stroke-width="1.5" stroke-miterlimit="10"/>
<path opacity="0.42" d="M187.9 2.76794C185.7 0.567943 182.5 0.367943 178.8 2.46794L12.9 98.2679C6.3 102.068 1 112.268 1 121.068V260.768C1 266.468 3.3 270.168 6.6 271.068" stroke="#4296EA" stroke-width="1.5" stroke-miterlimit="10"/>
<path d="M171.9 128.768V83.0679C171.9 79.0679 169.5 77.2679 166.5 78.9679L108.1 112.668C105.1 114.368 102.7 119.068 102.7 123.068V168.768C102.7 172.768 105.1 174.568 108.1 172.868L166.5 139.168C169.5 137.368 171.9 132.768 171.9 128.768Z" fill="url(#paint7_linear)"/>
<path d="M182 48.1679V43.5679C182 39.3679 179.4 37.4679 176.3 39.2679L24.8001 126.668C21.6001 128.468 19.1001 133.368 19.1001 137.568V142.168C19.1001 146.368 21.7001 148.268 24.8001 146.468L176.2 59.0679C179.4 57.2679 182 52.3679 182 48.1679Z" stroke="#4296EA" stroke-width="1.5" stroke-miterlimit="10"/>
<defs>
<linearGradient id="paint0_linear" x1="182.554" y1="170.245" x2="-71.4028" y2="70.854" gradientUnits="userSpaceOnUse">
<stop offset="0.3713" stop-color="#02153F" stop-opacity="0"/>
<stop offset="0.4438" stop-color="#0B2858" stop-opacity="0.0533062"/>
<stop offset="0.5978" stop-color="#235898" stop-opacity="0.1667"/>
<stop offset="0.7789" stop-color="#4296EA" stop-opacity="0.3"/>
</linearGradient>
<linearGradient id="paint1_linear" x1="68.6818" y1="166.812" x2="34.9995" y2="146.014" gradientUnits="userSpaceOnUse">
<stop stop-color="#4296EA"/>
<stop offset="0.3351" stop-color="#317DD7"/>
<stop offset="1" stop-color="#0742AA"/>
</linearGradient>
<linearGradient id="paint2_linear" x1="68.6817" y1="180.423" x2="34.9994" y2="159.624" gradientUnits="userSpaceOnUse">
<stop stop-color="#4296EA"/>
<stop offset="0.3351" stop-color="#317DD7"/>
<stop offset="1" stop-color="#0742AA"/>
</linearGradient>
<linearGradient id="paint3_linear" x1="68.6815" y1="194.033" x2="34.9991" y2="173.235" gradientUnits="userSpaceOnUse">
<stop stop-color="#4296EA"/>
<stop offset="0.3351" stop-color="#317DD7"/>
<stop offset="1" stop-color="#0742AA"/>
</linearGradient>
<linearGradient id="paint4_linear" x1="68.6813" y1="207.643" x2="34.999" y2="186.845" gradientUnits="userSpaceOnUse">
<stop stop-color="#4296EA"/>
<stop offset="0.3351" stop-color="#317DD7"/>
<stop offset="1" stop-color="#0742AA"/>
</linearGradient>
<linearGradient id="paint5_linear" x1="68.6812" y1="221.254" x2="34.9988" y2="200.456" gradientUnits="userSpaceOnUse">
<stop stop-color="#4296EA"/>
<stop offset="0.3351" stop-color="#317DD7"/>
<stop offset="1" stop-color="#0742AA"/>
</linearGradient>
<linearGradient id="paint6_linear" x1="192.151" y1="68.6617" x2="-8.5881" y2="116.792" gradientUnits="userSpaceOnUse">
<stop offset="0.1872" stop-color="#02153F" stop-opacity="0"/>
<stop offset="0.3316" stop-color="#0B2858" stop-opacity="0.0533062"/>
<stop offset="0.6388" stop-color="#235898" stop-opacity="0.1667"/>
<stop offset="1" stop-color="#4296EA" stop-opacity="0.3"/>
</linearGradient>
<linearGradient id="paint7_linear" x1="171.922" y1="135.612" x2="102.092" y2="115.991" gradientUnits="userSpaceOnUse">
<stop offset="0.1872" stop-color="#02153F" stop-opacity="0"/>
<stop offset="0.3316" stop-color="#0B2858" stop-opacity="0.0533062"/>
<stop offset="0.6388" stop-color="#235898" stop-opacity="0.1667"/>
<stop offset="1" stop-color="#4296EA" stop-opacity="0.3"/>
</linearGradient>
</defs>
</svg>
