<svg width="811" height="562" viewBox="0 0 811 562" fill="none" xmlns="http://www.w3.org/2000/svg">
<path opacity="0.38" d="M593.8 305.1L351.6 444.7C345.5 448.2 337.9 448.2 331.8 444.7L231.1 386.5C223.3 382 223.3 370.7 231.1 366.2L467.7 229.8C476.6 224.7 487.5 224.7 496.4 229.8L593.7 286C601.1 290.2 601.1 300.8 593.8 305.1Z" stroke="#2A77D3" stroke-miterlimit="10"/>
<path d="M593.8 296.5L351.6 436.1C345.5 439.6 337.9 439.6 331.8 436.1L231.1 377.9C223.3 373.4 223.3 362.1 231.1 357.6L467.7 221.2C476.6 216.1 487.5 216.1 496.4 221.2L593.7 277.4C601.1 281.6 601.1 292.3 593.8 296.5Z" stroke="#2A77D3" stroke-miterlimit="10"/>
<path d="M592.3 285.1L351.5 423C345.5 426.5 338.1 426.5 332.1 423L232.4 365.1C224.8 360.7 221.2 340 228.9 335.6L464.6 204.7C473.3 199.7 484 199.7 492.7 204.7L591.5 253.8C598.8 257.9 603.3 276.8 592.3 285.1Z" fill="#1A5FC4"/>
<path d="M593.7 257.2C599.2 262.9 603.1 279.2 592.9 287.8C592.5 288.1 592 288.4 591.6 288.7L351.5 426.1C345.5 429.6 338.1 429.6 332.1 426.1L232.4 368.2C222.6 362.6 221.4 342.8 228.1 334.4" stroke="#71BFFF" stroke-miterlimit="10"/>
<path d="M588.3 269.8L351.5 406.3C345.5 409.8 338.1 409.8 332.1 406.3L233.6 349.4C226 345 226 333.9 233.6 329.5L464.9 196.2C473.6 191.2 484.3 191.2 493 196.2L588.1 251.2C595.5 255.3 595.5 265.7 588.3 269.8Z" fill="#0742AA"/>
<path d="M574.8 268.5L364.8 389.2L257 327L356.3 270.1L467.1 206.2L574.8 268.5Z" fill="#002E96"/>
<path d="M307.867 365.338C307.889 361.361 302.265 358.107 295.306 358.069C288.347 358.032 282.689 361.225 282.667 365.201C282.646 369.178 288.269 372.432 295.228 372.469C302.187 372.507 307.846 369.314 307.867 365.338Z" fill="#002E96"/>
<path d="M307.878 362.227C307.899 358.251 302.276 354.997 295.317 354.959C288.358 354.921 282.7 358.114 282.678 362.091C282.656 366.067 288.28 369.321 295.239 369.359C302.198 369.397 307.856 366.204 307.878 362.227Z" stroke="#71BFFF" stroke-miterlimit="10"/>
<path d="M588.3 267.5L351.5 404C345.5 407.5 338.1 407.5 332.1 404L233.7 347C226.1 342.6 226.1 331.5 233.7 327.1L465 193.8C473.7 188.8 484.4 188.8 493.1 193.8L588.2 248.8C595.5 253 595.5 263.4 588.3 267.5Z" stroke="#71BFFF" stroke-miterlimit="10"/>
<path d="M574.8 266.1L364.8 386.9L257 324.7L261.8 321.9L356.3 267.8L467.1 203.9L570.1 263.4L574.8 266.1Z" stroke="#71BFFF" stroke-miterlimit="10"/>
<path d="M419.4 148.5L410.9 143.5L399.2 145.3L396.1 152L404.7 157L416.3 155.2L419.4 148.5Z" fill="#FFF1CA" stroke="#71BFFF" stroke-width="0.8755" stroke-miterlimit="10"/>
<path d="M419.4 148.5L410.9 143.5L399.2 145.3L396.1 152L404.7 157L416.3 155.2L419.4 148.5Z" stroke="#71BFFF" stroke-width="0.8755" stroke-miterlimit="10" stroke-linecap="round" stroke-linejoin="round"/>
<path d="M396.1 152L390.7 156.8L403.4 164.2L404.7 157L396.1 152Z" fill="#FDD231" stroke="#71BFFF" stroke-width="0.8755" stroke-miterlimit="10" stroke-linecap="round" stroke-linejoin="round"/>
<path d="M416.3 155.2L420.1 161.4L403.4 164.2L404.7 157L416.3 155.2Z" fill="#FEEEB7" stroke="#71BFFF" stroke-width="0.8755" stroke-miterlimit="10" stroke-linecap="round" stroke-linejoin="round"/>
<path d="M419.4 148.5L424.3 151.7L420.1 161.4L416.3 155.2L419.4 148.5Z" fill="#FDAD00" stroke="#71BFFF" stroke-width="0.8755" stroke-miterlimit="10" stroke-linecap="round" stroke-linejoin="round"/>
<path d="M399.2 145.3L395.1 147.2L390.7 156.8L396.1 152L399.2 145.3Z" fill="#FFC30D" stroke="#71BFFF" stroke-width="0.8755" stroke-miterlimit="10" stroke-linecap="round" stroke-linejoin="round"/>
<path d="M403.4 164.2L407.5 175.4L390.7 156.8L403.4 164.2Z" fill="#EA6C00" stroke="#71BFFF" stroke-width="0.8755" stroke-miterlimit="10" stroke-linecap="round" stroke-linejoin="round"/>
<path d="M420.1 161.4L407.5 175.4L403.4 164.2L420.1 161.4Z" fill="#FDAD00" stroke="#71BFFF" stroke-width="0.8755" stroke-miterlimit="10" stroke-linecap="round" stroke-linejoin="round"/>
<path d="M423.7 146.9V141.5" stroke="#D9F0FF" stroke-width="0.8755" stroke-miterlimit="10" stroke-linecap="round" stroke-linejoin="round"/>
<path d="M426.9 149.3L430.7 145.5" stroke="#D9F0FF" stroke-width="0.8755" stroke-miterlimit="10" stroke-linecap="round" stroke-linejoin="round"/>
<path d="M432.8 143.5L433.6 142.7" stroke="#D9F0FF" stroke-width="0.8755" stroke-miterlimit="10" stroke-linecap="round" stroke-linejoin="round"/>
<path d="M428.6 153.3H430.4" stroke="#D9F0FF" stroke-width="0.8755" stroke-miterlimit="10" stroke-linecap="round" stroke-linejoin="round"/>
<path d="M433.4 153.3H435.1" stroke="#D9F0FF" stroke-width="0.8755" stroke-miterlimit="10" stroke-linecap="round" stroke-linejoin="round"/>
<path d="M406.5 67.8V136.8L401.7 151.1" stroke="#4296EA" stroke-width="1.0506" stroke-miterlimit="10" stroke-linecap="round" stroke-linejoin="round"/>
<path d="M406.5 136.8L412.6 147.5" stroke="#4296EA" stroke-width="1.0506" stroke-miterlimit="10" stroke-linecap="round" stroke-linejoin="round"/>
<path d="M447.7 67.3C449.8 62.2 446.6 47.8 417.7 28.4C392.7 11.6 379.4 16.3 376.3 17.8C376.8 17.3 377.3 16.8 377.9 16.4C383.8 12.3 398.5 6.30002 423.5 21.4C423.5 21.4 460.4 44.9 447.7 67.3Z" fill="#FECF33" stroke="#2A77D3" stroke-width="0.8755" stroke-miterlimit="10" stroke-linecap="round" stroke-linejoin="round"/>
<path d="M446.2 68.7C441.6 72.2 426.8 80.2001 401.7 64.6C374.7 47.8 371.8 32 373.8 22.6C374.1 21.2 374.7 19.9 375.5 18.8C373.2 33.7 381.4 41.2 399.7 54.8C416.1 66.9 439.7 71.4 446.2 68.7Z" fill="#EE6723" stroke="#2A77D3" stroke-width="0.8755" stroke-miterlimit="10" stroke-linecap="round" stroke-linejoin="round"/>
<path d="M447.7 67.3L375.8 18.4C376 18.2 376.1 18 376.3 17.8C379.4 16.2 392.7 11.6 417.7 28.4C446.6 47.8 449.8 62.2 447.7 67.3Z" fill="#FDBD39" stroke="#2A77D3" stroke-width="0.8755" stroke-miterlimit="10" stroke-linecap="round" stroke-linejoin="round"/>
<path d="M447.7 67.3C447.7 67.3 447.2 67.9 446.1 68.7C439.6 71.5 416.1 66.9 399.6 54.8C381.3 41.3 373.1 33.8 375.4 18.8C375.5 18.7 375.6 18.5 375.7 18.4L447.7 67.3Z" fill="#F69833" stroke="#2A77D3" stroke-width="0.8755" stroke-miterlimit="10" stroke-linecap="round" stroke-linejoin="round"/>
<path d="M389.4 11.7L374.8 1.40002L371 16.2L375 18.9C375 18.8 379.7 13.4 389.4 11.7Z" fill="#F69833" stroke="#2A77D3" stroke-width="0.8755" stroke-miterlimit="10" stroke-linecap="round" stroke-linejoin="round"/>
<path d="M375 18.8L371 16.1L358.7 24.7L374.3 35.3C374.3 35.4 371.6 24.8 375 18.8Z" fill="#FDBD39" stroke="#2A77D3" stroke-width="0.8755" stroke-miterlimit="10" stroke-linecap="round" stroke-linejoin="round"/>
<path d="M439.9 34.1C439.9 34.1 445.6 21.3 437.3 17C429.1 12.7 412.5 16.8 393.5 36.9C374.5 57 378.1 75.6 398.5 70.3C401 69.6 403.5 68.6 405.8 67.4" stroke="#71BFFF" stroke-width="1.7509" stroke-miterlimit="10" stroke-linecap="round" stroke-linejoin="round"/>
<path d="M427.9 23.7001C427.7 19.1001 426.6 5.50005 418 6.50005C407.7 7.70005 396.8 34.2001 395.9 45.0001C395 55.8001 392 75.7001 403.6 79.9001C406.2 80.9001 409.5 78.7001 412.9 74.7001" stroke="#71BFFF" stroke-width="1.7509" stroke-miterlimit="10" stroke-linecap="round" stroke-linejoin="round"/>
<path d="M67.9 405.6L0.699951 366.8L67.5 328.2L134.8 367L67.9 405.6Z" stroke="#71BFFF" stroke-width="0.6926" stroke-miterlimit="10"/>
<path d="M67.9 398.5L0.699951 359.7L67.5 321.1L134.8 359.9L67.9 398.5Z" fill="#B8B8FF"/>
<path d="M67.9 394.4L0.699951 355.6L67.5 317L134.8 355.8L67.9 394.4Z" fill="#470137"/>
<path d="M134.8 355.8V359.9L67.8999 398.5V394.4L134.8 355.8Z" fill="#7A146C"/>
<path d="M67.9 398.5V394.4L0.699951 355.6V359.7L67.9 398.5Z" fill="#660A55"/>
<path d="M115.8 366.7C111.7 368.8 67.7999 393.5 67.7999 393.5C67.7999 393.5 18.2999 365.4 13.5999 363.1L67.8999 394.4L115.8 366.7Z" fill="#932188"/>
<path d="M53.5 345.1L59.3 358.5L84 362C84.2001 362 84.3001 362.1 84.4001 362.2C84.5 362.3 84.3 362.3 84.1 362.4L77.4001 366.2C76.9001 366.5 76.6 366.6 76.1 366.6C74.3 366.2 72.4 365.9 70.6 365.6C68.8 365.3 66.9001 364.9 64.9001 364.6C62.9001 364.3 61 364 59 363.6H58.9001C59.5 364.7 60.1001 365.8 60.7001 366.9C61.3 368 61.9001 369.1 62.5 370.2C63.1 371.3 63.6 372.4 64.2 373.5C64.4 373.7 64.2001 373.9 63.9001 374.1L57.5 377.8C57.4 377.9 57.4001 378 57.2001 377.9C57.1 377.8 57.0001 377.8 56.9001 377.7L51 363.9L27.2001 360.3C27.0001 360.3 26.8 360.2 26.8 360.2C26.8 360.1 26.9 360 27 360L33.6 356.2C33.7 356.1 33.9 356 34.1 356C34.3 356 34.4001 356 34.7001 356C36.5001 356.4 38.4 356.8 40.3 357.1C42.3 357.4 44.2 357.7 46.1 358C48 358.3 49.9 358.6 51.8 359H51.9001C51.2001 357.9 50.6 356.8 50 355.7C49.4 354.6 48.9 353.5 48.3 352.4C47.7 351.3 47.1 350.2 46.6 349.1C46.5 349 46.5 348.9 46.5 348.8C46.6 348.7 46.6 348.6 46.8 348.5L52.9001 345C53.0001 344.9 53.2001 344.9 53.4001 344.9C53.5001 345 53.5 345.1 53.5 345.1Z" fill="#FF61F6"/>
<path d="M97.8 355.2C95.7 356.5 93.0999 357.4 90.1999 358C87.4999 358.6 84.6 358.6 81.8 358.2C78.9 357.8 76.2 356.8 73.5 355.3C71.3 354.1 69.7 352.5 68.9 350.8C68.1 349.1 68.1 347.2 69 345.5C69.9 343.7 71.7999 341.9 74.6999 340.3C74.7999 340.2 75 340.1 75.3 340C75.6 339.9 75.9 339.7 76.3 339.5L67.1 334.2C66.9 334.1 66.9 334 67.1 333.8L73 330.4C73.1 330.3 73.3 330.3 73.5 330.4H73.6L101.4 346.5C101.9 346.8 102.5 347.1 103.2 347.5C103.9 347.8 104.5 348.1 105 348.4C105.2 348.5 105.3 348.7 105.2 348.8C104.3 350 103.2 351.2 101.9 352.3C100.7 353.4 99.3 354.3 97.8 355.2ZM94.8 350.2L82 342.8C81.7 342.9 81.4 343 81.1 343.2C80.8 343.4 80.4 343.5 80.1 343.7C79 344.4 78.1 345.1 77.6 346C77.1 346.9 77 347.8 77.3 348.7C77.6 349.6 78.5 350.5 80.1 351.4C81.1 352 82.3 352.5 83.6 352.9C84.7 353.2 85.8 353.3 87 353.3C88.1 353.3 89.2 353.1 90.1 352.8C91.1 352.5 92.1 352.1 92.9 351.6C93.3 351.3 93.7 351.1 94.1 350.9C94.3 350.7 94.6 350.5 94.8 350.2Z" fill="#FF61F6"/>
<path d="M742.3 327.7L674.4 288.5L741.9 249.5L809.8 288.7L742.3 327.7Z" stroke="#71BFFF" stroke-width="0.6995" stroke-miterlimit="10"/>
<path d="M742.3 320.5L674.4 281.2L741.9 242.3L809.8 281.5L742.3 320.5Z" fill="#B8B8FF"/>
<path d="M742.3 316.3L674.4 277.1L741.9 238.2L809.8 277.4L742.3 316.3Z" fill="#001E36"/>
<path d="M809.8 277.4V281.5L742.3 320.5V316.3L809.8 277.4Z" fill="#10547A"/>
<path d="M742.3 320.5V316.3L674.4 277.1V281.2L742.3 320.5Z" fill="#053251"/>
<path d="M790.7 288.4C786.5 290.5 742.2 315.4 742.2 315.4C742.2 315.4 692.2 287 687.4 284.7L742.2 316.3L790.7 288.4Z" fill="#1A6D91"/>
<path d="M710 271L739.3 254.1C739.5 254 739.7 254 739.9 254.1C740.4 254.4 740.8 254.6 741.5 255C742.2 255.4 742.9 255.8 743.7 256.2C744.5 256.6 745.3 257.1 746.3 257.6C747.3 258.1 748.1 258.6 748.9 259.1C751.3 260.5 752.9 261.7 753.9 263C754.8 264.1 755.4 265.3 755.4 266.6C755.4 267.7 755 268.7 754.2 269.7C753.4 270.6 752.4 271.5 751.2 272.2C748.7 273.6 746.2 274.5 743.4 274.7C740.7 275 737.9 274.7 735.3 274C732.6 273.3 730.2 272.2 727.9 270.8C727.2 270.4 726.8 270.1 726.5 270C726.2 269.9 725.8 269.6 725.3 269.3L716.1 274.6C715.9 274.7 715.6 274.7 715.4 274.6L709.8 271.4C709.8 271.3 709.8 271.2 710 271ZM740.5 260.7L730.9 266.2C731.3 266.4 731.6 266.7 732 266.9L733.5 267.8C734.6 268.4 735.9 269 737.3 269.4C738.5 269.8 739.8 269.9 741.2 269.9C742.5 269.8 743.8 269.4 745 268.7C745.9 268.2 746.6 267.6 746.9 266.9C747.2 266.2 747 265.5 746.5 264.8C745.9 263.9 744.9 263.2 743.7 262.5C743 262.1 742.3 261.7 741.7 261.4C741.1 261 740.7 260.8 740.5 260.7ZM765.9 284.5C765.5 283.7 764.9 283 764.1 282.4C763.3 281.7 762.3 281 761.3 280.3C760.8 280 760.1 279.7 759.4 279.4C758.9 279.2 758.4 279.2 757.9 279.2C757.5 279.2 757.2 279.4 756.9 279.5C756.6 279.6 756.5 279.9 756.4 280.1C756.3 280.4 756.4 280.8 756.6 281.1C756.9 281.7 757.3 282.3 757.7 282.8C758.7 284 759.5 285.3 760 286.6C760.3 287.5 760.3 288.4 759.9 289.3C759.4 290.1 758.7 290.8 757.6 291.4C756.3 292.2 754.5 292.7 752.7 292.9C750.8 293.1 748.8 293 746.9 292.5C744.9 292 742.9 291.2 740.8 290C739.5 289.2 738.3 288.4 737.3 287.5C736.5 286.8 735.8 286.1 735.3 285.3C735.2 285.1 735.3 284.9 735.5 284.8L740.5 281.9C740.6 281.9 740.7 281.8 740.9 281.8C741 281.8 741.1 281.9 741.1 282C741.6 283 742.3 284 743.3 284.9C744.1 285.7 745.1 286.4 746.3 287.1C747.4 287.7 748.3 288.1 749.1 288.2C749.8 288.3 750.6 288.3 751.1 288C751.5 287.8 751.6 287.4 751.6 286.9C751.5 286.4 751 285.6 750.1 284.5C749.2 283.4 748.5 282.2 748.1 281C747.8 280.1 747.9 279.2 748.3 278.3C748.8 277.5 749.5 276.8 750.5 276.2C751.7 275.5 753.2 275 754.9 274.8C756.8 274.6 758.7 274.6 760.5 275C762.5 275.4 764.5 276.2 766.6 277.4C767.8 278.1 768.9 278.8 769.9 279.6C770.6 280.2 771.3 280.8 771.7 281.4C771.8 281.5 771.8 281.6 771.7 281.7C771.6 281.8 771.5 281.9 771.4 281.9L766.8 284.6C766.7 284.7 766.5 284.7 766.4 284.7C766.1 284.6 766 284.6 765.9 284.5Z" fill="#31A8FF"/>
<path d="M153.8 434L250.7 377.9" stroke="#2A77D3" stroke-miterlimit="10" stroke-linecap="round" stroke-linejoin="round" stroke-dasharray="12 12"/>
<path d="M121.6 436.8L135.2 444.7L153.8 434" stroke="#D9F0FF" stroke-miterlimit="10" stroke-linecap="round" stroke-linejoin="round"/>
<path d="M67 404.6L121.6 436.8" stroke="#2A77D3" stroke-miterlimit="10" stroke-linecap="round" stroke-linejoin="round" stroke-dasharray="12 12"/>
<path d="M270.3 522.4L201.8 483.1L318.8 416.2" stroke="#2A77D3" stroke-miterlimit="10" stroke-linecap="round" stroke-linejoin="round" stroke-dasharray="12 12"/>
<path d="M674.5 289.1L539.4 367.4L336.2 484.2" stroke="#2A77D3" stroke-miterlimit="10" stroke-linecap="round" stroke-linejoin="round" stroke-dasharray="12 12"/>
<path d="M597.8 400.3L496.6 341.9" stroke="#2A77D3" stroke-miterlimit="10" stroke-linecap="round" stroke-linejoin="round" stroke-dasharray="12 12"/>
<path d="M540.4 444.7L439.2 386.2" stroke="#2A77D3" stroke-miterlimit="10" stroke-linecap="round" stroke-linejoin="round" stroke-dasharray="12 12"/>
<path d="M607.6 483.5L540.3 444.7L607.2 406L674.5 444.9L607.6 483.5Z" stroke="#71BFFF" stroke-width="0.6934" stroke-miterlimit="10"/>
<path d="M607.6 476.4L540.3 437.5L607.2 398.9L674.5 437.7L607.6 476.4Z" fill="#B8B8FF"/>
<path d="M607.6 472.3L540.3 433.4L607.2 394.8L674.5 433.7L607.6 472.3Z" fill="#5651FF"/>
<path d="M674.5 433.7V437.7L607.6 476.4V472.3L674.5 433.7Z" fill="#9797FF"/>
<path d="M607.6 476.4V472.3L540.3 433.4V437.5L607.6 476.4Z" fill="#7878FF"/>
<path d="M655.6 444.6C651.5 446.7 607.6 471.4 607.6 471.4C607.6 471.4 558 443.3 553.3 440.9L607.6 472.3L655.6 444.6Z" fill="#B8B8FF"/>
<path d="M574.3 441.6C578.5 444 585.2 444 589.4 441.6L596.9 437.3L589.3 432.9C585.1 430.5 578.4 430.5 574.2 432.9C570.1 435.3 570.1 439.2 574.3 441.6Z" fill="#0ACF83"/>
<path d="M589.2 424.3C593.3 421.9 600.1 421.9 604.3 424.3L611.9 428.7L596.9 437.4L589.3 433C585.1 430.6 585.1 426.7 589.2 424.3Z" fill="#A259FF"/>
<path d="M604.2 415.6C608.3 413.2 615.1 413.2 619.3 415.6L626.9 420L611.9 428.7L604.3 424.3C600.1 421.9 600.1 418 604.2 415.6Z" fill="#F24E1E"/>
<path d="M626.8 420L634.4 424.4C638.6 426.8 638.6 430.7 634.4 433.1C630.3 435.5 623.5 435.5 619.3 433.1L611.7 428.7L626.8 420Z" fill="#FF7262"/>
<path d="M619.4 441.7C615.3 444.1 608.5 444.1 604.3 441.7C600.1 439.3 600.1 435.4 604.3 433C608.4 430.6 615.2 430.6 619.4 433C623.6 435.4 623.6 439.3 619.4 441.7Z" fill="#1ABCFE"/>
<path d="M212.8 477.3L248.8 456.9" stroke="#D9F0FF" stroke-miterlimit="10" stroke-linecap="round" stroke-linejoin="round"/>
<path d="M337.4 561.3L270.3 522.5L337 484L404.1 522.8L337.4 561.3Z" stroke="#71BFFF" stroke-width="0.6911" stroke-miterlimit="10"/>
<path d="M337.4 554.1L270.3 515.4L337 476.9L404.1 515.6L337.4 554.1Z" fill="#B8B8FF"/>
<path d="M337.4 550.1L270.3 511.3L337 472.8L404.1 511.6L337.4 550.1Z" fill="#12002C"/>
<path d="M404.1 511.6V515.6L337.4 554.1V550.1L404.1 511.6Z" fill="#29105B"/>
<path d="M337.4 554.1V550.1L270.3 511.3V515.4L337.4 554.1Z" fill="#200747"/>
<path d="M385.2 522.4C381.1 524.5 337.3 549.1 337.3 549.1C337.3 549.1 287.9 521.1 283.2 518.8L337.3 550.1L385.2 522.4Z" fill="#32196D"/>
<path d="M349.5 498.2C351.1 497.3 351.6 497 351.7 496.9C351.5 496.8 351.4 496.7 351.2 496.6C349.5 495.6 345.6 494.3 342.4 496.2C339.5 497.9 340.8 500.1 343.2 501.9L349.5 498.2ZM347.5 504.3C351.7 506.7 356.5 507.2 361.2 504.5C363 503.5 364.3 502.4 365.2 501.1C365.3 500.9 365.5 500.9 365.8 501L369.7 503.2C370 503.4 370.1 503.5 370 503.7C369.2 505.1 367.5 506.5 365 507.9C356.9 512.6 347.8 510.9 341.1 507C333.8 502.8 331.6 497.2 338.2 493.4C344.9 489.5 352.9 491.5 357.5 494.1C359 495 360.1 495.7 360.5 496.1C360.7 496.3 360.7 496.4 360.5 496.6C360 497 358.3 498.1 355.6 499.7L347.5 504.3ZM327.9 511.9C323.6 510.4 314 507.3 309.7 505.7H309.6C312.6 508.2 317 512.7 320.5 516.2L327.9 511.9ZM324.3 519.8L331.1 526.5C331.3 526.7 331.3 526.8 331 527L326.5 529.6C326.2 529.8 326 529.8 325.7 529.5L303.7 506.7C303.3 506.3 303 506 301.5 505.1C301.3 505 301.3 504.9 301.4 504.8L307.8 501.1C308 501 308.2 501 308.5 501.1L351.5 514.7C351.8 514.8 351.9 514.9 351.7 515.1L346.6 518C346.4 518.1 346.1 518.2 345.8 518.1L334 514.2L324.3 519.8Z" fill="#D8A1FF"/>
<path d="M154.3 187.3L51.8 245.4" stroke="#2A77D3" stroke-width="1.262" stroke-miterlimit="10"/>
<path d="M57.7 299.1C55.4 285.6 64.8 235.4 102.2 219.5C135 205.5 143.3 239.9 143.1 248.6L57.7 299.1Z" fill="#053C9E"/>
<path d="M158.3 187.9C158.3 189.8 157.2 191.5 155.7 192.3C155 192.7 154.2 192.9 153.3 192.9C150.5 192.9 148.3 190.7 148.3 187.9C148.3 185.3 150.2 183.2 152.7 182.9C152.9 182.9 153.1 182.9 153.3 182.9C156 182.9 158.3 185.1 158.3 187.9Z" fill="#2A77D3"/>
<path d="M158.3 187.9C158.3 189.8 157.2 191.5 155.7 192.3C155.5 192.3 155.3 192.3 155.1 192.3C152.3 192.3 150.1 190.1 150.1 187.3C150.1 185.4 151.2 183.7 152.7 182.9C152.9 182.9 153.1 182.9 153.3 182.9C156 182.9 158.3 185.1 158.3 187.9Z" fill="#71BFFF"/>
<path d="M57.7 298.4C55.4 284.9 64.8 234.7 102.2 218.8C135 204.8 143.3 239.2 143.1 247.9" stroke="#2A77D3" stroke-width="1.262" stroke-miterlimit="10"/>
<path d="M57 245.4C57 247.3 55.9 249 54.4 249.8C53.7 250.2 52.9 250.4 52 250.4C49.2 250.4 47 248.2 47 245.4C47 242.8 48.9 240.7 51.4 240.4C51.6 240.4 51.8 240.4 52 240.4C54.8 240.4 57 242.7 57 245.4Z" fill="#2A77D3"/>
<path d="M57 245.4C57 247.3 55.9001 249 54.4001 249.8C54.2001 249.8 54 249.8 53.8 249.8C51 249.8 48.8 247.6 48.8 244.8C48.8 242.9 49.9001 241.2 51.4001 240.4C51.6001 240.4 51.8 240.4 52 240.4C54.8 240.4 57 242.7 57 245.4Z" fill="#71BFFF"/>
<path d="M107.5 217.2C107.5 219.1 106.4 220.8 104.9 221.6C104.2 222 103.4 222.2 102.5 222.2C99.7 222.2 97.5 220 97.5 217.2C97.5 214.6 99.4 212.5 101.9 212.2C102.1 212.2 102.3 212.2 102.5 212.2C105.2 212.2 107.5 214.5 107.5 217.2Z" fill="#2A77D3"/>
<path d="M107.5 217.2C107.5 219.1 106.4 220.8 104.9 221.6C104.7 221.6 104.5 221.6 104.3 221.6C101.5 221.6 99.3 219.4 99.3 216.6C99.3 214.7 100.4 213 101.9 212.2C102.1 212.2 102.3 212.2 102.5 212.2C105.2 212.2 107.5 214.5 107.5 217.2Z" fill="#71BFFF"/>
<path d="M103 294.1L90.4001 286.8L102.9 279.6L115.4 286.9L103 294.1Z" fill="#00276B"/>
<path d="M114.2 272.8V280.2L103 286.7V278.7L114.2 272.8Z" fill="#BA3DEA"/>
<path d="M91.8 272.8V280.2L103 286.7V278.7L91.8 272.8Z" fill="#9F33D1"/>
<path d="M114.2 272.8L113.1 272L103 277.4V278.7L114.2 272.8Z" fill="#3E005B"/>
<path d="M91.8 272.8L92.9 272L103 277.4V278.7L91.8 272.8Z" fill="#210035"/>
<path d="M103.3 256.8C105.3 257 106.9 258.7 106.9 260.7C106.9 262.9 105.2 264.6 103 264.6V277.4L113.1 272C113.1 272 112.3 261.1 117.1 256.9C117.1 256.9 118.3 255.7 116.9 252.5C115.5 249.3 103.9 224.6 103.9 224.6H103.3V256.8Z" fill="#71BFFF"/>
<path d="M102.7 224.7H102.1C102.1 224.7 90.5001 249.4 89.1001 252.6C87.7001 255.8 88.9001 257 88.9001 257C93.6001 261.2 92.9001 272.1 92.9001 272.1L103 277.5V264.7C100.8 264.7 99.1001 262.9 99.1001 260.8C99.1001 258.7 100.7 257.1 102.7 256.9V224.7Z" fill="#4296EA"/>
<path d="M321.3 212.2L182.1 292.6C178.5 294.7 175.5 292.5 175.5 287.6V193.6C175.5 188.7 178.5 183.1 182.1 181L321.3 100.6C324.9 98.5 327.9 100.7 327.9 105.6V199.6C327.9 204.5 324.9 210.1 321.3 212.2Z" stroke="#71BFFF" stroke-width="0.7264" stroke-miterlimit="10"/>
<path d="M135.3 521.7L68.3999 483.1L134.9 444.7L201.9 483.3L135.3 521.7Z" stroke="#71BFFF" stroke-width="0.6897" stroke-miterlimit="10"/>
<path d="M135.3 514.6L68.3999 476L134.9 437.5L201.9 476.2L135.3 514.6Z" fill="#B8B8FF"/>
<path d="M135.3 510.6L68.3999 471.9L134.9 433.5L201.9 472.1L135.3 510.6Z" fill="#DC395F"/>
<path d="M201.9 472.1V476.2L135.3 514.6V510.6L201.9 472.1Z" fill="#EF507A"/>
<path d="M135.3 514.6V510.6L68.3999 471.9V476L135.3 514.6Z" fill="#CE325B"/>
<path d="M183 483C178.9 485.1 135.2 509.7 135.2 509.7C135.2 509.7 85.9 481.7 81.2 479.4L135.2 510.6L183 483Z" fill="#F96B97"/>
<path d="M138.7 455C141 456.3 144.6 456.4 146.9 455C149.2 453.7 149.1 451.6 146.8 450.3C144.5 449 140.9 448.9 138.6 450.2C136.3 451.6 136.4 453.7 138.7 455ZM108.3 462.6C107 463.1 105.8 463.6 104.9 464.2C101.3 466.3 100.9 468.8 105 471.2C108.4 473.2 113.3 473.6 118.6 472.9L112.5 475L119.3 478.9L138.8 472.2C143.7 470.5 147.7 470.4 150.5 472.1C152.8 473.4 152.8 475 150.5 476.4C149.8 476.8 149 477.2 148 477.5L138.8 480.5C137.5 480.9 136.3 481.4 135.3 482C131.9 484 131.4 486.6 135.6 489C139.2 491.1 144.4 491.4 151.5 489.1L149.8 487C144.8 488.4 142.9 488.1 142 487.5C141.1 487 141.2 486.3 142.4 485.6C142.9 485.3 143.7 485 144.6 484.7L153.5 481.8C155.6 481.1 157.3 480.4 158.6 479.6C163.8 476.6 163.4 473.2 159.5 471C155.9 468.9 149 468.7 143.8 469.6L151.2 466.9L140.8 460.9L134 463.2L138.9 466L123.9 471.2C116.3 472.8 111.9 470.4 111.5 470C110.8 469.4 110.6 468.8 111.7 468.2C112.4 467.8 113.4 467.3 114.9 466.8L137.5 459L125.9 452.3L119.1 454.6L123.9 457.4L108.3 462.6Z" fill="white"/>
<path d="M325.3 214.3L186.1 294.7C182.5 296.8 179.5 294.6 179.5 289.7V195.7C179.5 190.8 182.5 185.2 186.1 183.1L325.3 102.7C328.9 100.6 331.9 102.8 331.9 107.7V201.7C331.9 206.6 329 212.2 325.3 214.3Z" fill="#0E46AA"/>
<path d="M328.5 216.2L189.3 296.6C185.7 298.7 182.7 296.5 182.7 291.6V197.6C182.7 192.7 185.7 187.1 189.3 185L328.5 104.6C332.1 102.5 335.1 104.7 335.1 109.6V203.6C335.1 208.5 332.1 214.1 328.5 216.2Z" fill="#2A77D3"/>
<path d="M329.7 217.1L190.5 297.5C186.9 299.6 183.9 297.4 183.9 292.5V198.5C183.9 193.6 186.9 188 190.5 185.9L329.7 105.5C333.3 103.4 336.3 105.6 336.3 110.5V204.5C336.3 209.4 333.4 215 329.7 217.1Z" fill="#4296EA"/>
<path d="M250.1 216.2C246.1 224.5 242.5 234.7 240 247.1L267 231.5C267.9 231 268.7 230.5 269.6 229.9C270.4 229.4 271.1 228.8 271.9 228.2C277.1 224.1 281.8 218.4 285.4 212.2C285.7 211.8 285.8 211.6 286 211.1C286 211.1 268.1 222.2 250.1 216.2Z" stroke="#D9F0FF" stroke-width="1.4529" stroke-miterlimit="10"/>
<path d="M291.1 176.8C287.3 168 277.9 165.7 267 172L240 187.6V187.7C240 187.8 240 187.9 240.1 188V188.1V188.2C241.3 192.8 242.8 196.6 244.5 199.6C245.5 201.4 246.5 202.9 247.5 204.2C248.9 205.9 250.6 207.5 252.5 208.9C252.8 209.1 253 209.3 253.3 209.5C260.2 214.1 270.7 216 286 210.5C289.1 205.2 290.5 200.9 291.8 195.3C291.8 195.1 291.9 194.9 291.9 194.7C292.3 192.7 292.6 190.8 292.7 188.9C292.7 188.2 292.8 187.4 292.8 186.7C292.8 185.9 292.8 185.1 292.7 184.3C292.6 181.5 292 179 291.1 176.8Z" stroke="#D9F0FF" stroke-width="1.4529" stroke-miterlimit="10"/>
<path d="M291.1 221.6C291.1 221.6 290.1 224.1 288.3 224.4C288.3 224.4 288.4 225.1 288 225.6C287.9 225.8 287.8 225.9 287.6 226C286.5 226.8 285.4 226.8 285.3 226.8L276.9 218.6C277.3 218.8 277.8 218.8 278.3 218.4C278.5 218.3 278.6 218.1 278.8 217.9C279 217.7 279.2 217.4 279.3 217.1C279.5 216.6 279.7 216 279.7 215.4C284.8 216.4 291.1 217.6 291.1 217.6C292.1 219.1 291.1 221.6 291.1 221.6Z" fill="#8FD8FF"/>
<path d="M296.1 216L293.2 214.8L296.1 216Z" fill="#FFF5E6"/>
<path d="M291 217.6C291 217.6 291.8 216.9 291.7 215.9C291.5 214.5 290.6 213.7 290.5 213.7L290.9 213.9L293.3 214.9L290.5 213.8L278.8 213.9C279.3 214 279.6 214.4 279.7 215C279.7 215.1 279.7 215.3 279.7 215.4C284.7 216.4 291 217.6 291 217.6Z" fill="#7DCCFF"/>
<path d="M340 249L339.8 248.9C339.9 249 339.9 249 340 249Z" fill="#FFF5E6"/>
<path d="M337.1 247.8L336.9 247.7C336.9 247.8 337 247.8 337.1 247.8Z" fill="#FFF5E6"/>
<path d="M334.2 246.7L334 246.6C334 246.6 334.1 246.6 334.2 246.7Z" fill="#FFF5E6"/>
<path d="M331.2 245.5L331 245.4C331.1 245.4 331.2 245.5 331.2 245.5Z" fill="#FFF5E6"/>
<path d="M347.1 238.9C347.5 242.1 345.9 246.2 343.4 248.2C342.2 249.1 341 249.4 340.1 249.1L348.1 252.3C349.1 252.8 350.4 252.5 351.7 251.5C354.2 249.5 355.9 245.4 355.4 242.2C355.2 240.6 354.5 239.6 353.5 239.2L345.3 235.9C346.2 236.2 346.9 237.3 347.1 238.9Z" fill="#9F33D1"/>
<path d="M344.4 247.1C344.2 247.3 344.1 247.5 343.9 247.7C343.8 247.8 343.7 247.9 343.6 247.9C343.5 248 343.4 248.1 343.3 248.2C342.1 249.1 340.9 249.4 340 249.1L339.8 249L337.1 247.9C337.6 248.1 338.1 248.1 338.7 247.9C339.3 247.8 339.9 247.5 340.5 247C340.9 246.7 341.2 246.4 341.6 246C343.5 243.8 344.6 240.4 344.3 237.8C344.2 237 344 236.4 343.7 235.9C343.4 235.4 342.9 235 342.4 234.8L345.3 236C346.3 236.4 347 237.4 347.2 239C347.5 241.5 346.3 244.9 344.4 247.1Z" fill="#71BFFF"/>
<path d="M341.5 245.9C341.2 246.3 340.8 246.6 340.4 246.9C339.8 247.4 339.2 247.7 338.6 247.8C338 247.9 337.5 247.9 337 247.8L336.8 247.7L334.1 246.6C334.6 246.8 335.1 246.8 335.7 246.6C336.3 246.5 336.9 246.2 337.5 245.7C337.6 245.6 337.8 245.5 337.9 245.3C338.1 245.1 338.3 244.9 338.6 244.6C340.4 242.6 341.5 239.5 341.3 236.9C341.3 236.7 341.3 236.5 341.2 236.3C341.1 235.5 340.9 234.9 340.6 234.4C340.3 233.9 339.8 233.5 339.3 233.3L342.2 234.5C342.7 234.7 343.1 235.1 343.5 235.6C343.8 236.1 344 236.7 344.1 237.5C344.6 240.4 343.4 243.8 341.5 245.9Z" fill="#5651FF"/>
<path d="M341.5 245.9C341.2 246.3 340.8 246.6 340.4 246.9C339.8 247.4 339.2 247.7 338.6 247.8C338 247.9 337.5 247.9 337 247.8L336.8 247.7L334.1 246.6C334.6 246.8 335.1 246.8 335.7 246.6C336.3 246.5 336.9 246.2 337.5 245.7C337.6 245.6 337.8 245.5 337.9 245.3C338.1 245.1 338.3 244.9 338.6 244.6L341.5 245.9Z" fill="#6E6EFF"/>
<path d="M338.6 244.7C338.4 244.9 338.2 245.2 337.9 245.4C337.8 245.5 337.6 245.6 337.5 245.8C336.9 246.3 336.3 246.6 335.7 246.7C335.1 246.8 334.6 246.8 334.1 246.7L333.9 246.6L331.2 245.5C331.7 245.7 332.2 245.7 332.8 245.5C333.4 245.4 334 245.1 334.6 244.6C334.7 244.5 334.9 244.4 335 244.2C335.2 244 335.4 243.8 335.6 243.5C337.4 241.5 338.5 238.4 338.3 235.8C338.3 235.6 338.3 235.4 338.2 235.2C338.1 234.4 337.9 233.8 337.6 233.3C337.3 232.8 336.8 232.4 336.3 232.2L339.2 233.4C339.7 233.6 340.1 234 340.5 234.5C340.8 235 341 235.6 341.1 236.4C341.1 236.6 341.1 236.8 341.2 237C341.5 239.6 340.4 242.7 338.6 244.7Z" fill="#71BFFF"/>
<path d="M304.6 234.7L285.9 227.1L304.6 234.7Z" fill="#FFF5E6"/>
<path d="M285.2 226.9L285.5 227L285.9 227.1L285.2 226.9Z" fill="#FFE484"/>
<path d="M296 227.5L288.2 224.4C288.2 224.4 288.3 225.5 287.5 226.1C286.4 226.9 285.3 226.9 285.2 226.9L285.9 227.2L304.6 234.8L331.1 245.5L331.3 245.6C331.8 245.8 332.3 245.8 332.9 245.6C333.5 245.5 334.1 245.2 334.7 244.7C334.8 244.6 335 244.5 335.1 244.3C335.3 244.1 335.5 243.9 335.7 243.6L296 227.5Z" fill="#71BFFF"/>
<path d="M338.3 235.3C338.2 234.5 338 233.9 337.7 233.4C337.4 232.9 336.9 232.5 336.4 232.3L296.1 216L290.9 213.9L290.5 213.7C290.6 213.8 291.5 214.6 291.7 215.9C291.8 216.9 291 217.6 291 217.6L295.6 219.5L338.4 236.8C338.4 236.5 338.4 236.2 338.4 235.9C338.4 235.7 338.4 235.5 338.3 235.3Z" fill="#1A5FC4"/>
<path d="M295.6 219.5L291 217.6C292.1 219 291.1 221.6 291.1 221.6C291.1 221.6 290.1 224.1 288.3 224.4L296.1 227.5L335.7 243.5C335.8 243.3 336 243.2 336.1 243C336.2 242.8 336.4 242.6 336.5 242.5C336.9 241.9 337.3 241.1 337.6 240.4C337.9 239.7 338.1 238.9 338.3 238.1C338.3 237.9 338.4 237.7 338.4 237.5C338.4 237.3 338.4 237.1 338.4 236.9L295.6 219.5Z" fill="#2A77D3"/>
<path d="M338.3 237.4C338.3 237.2 338.3 237 338.4 236.8C338.4 237 338.4 237.2 338.3 237.4Z" fill="#FFDB4C"/>
<path d="M279.6 215C279.6 215.1 279.6 215.3 279.6 215.4C279.6 216.5 279 217.7 278.2 218.4C277.7 218.8 277.2 218.9 276.8 218.6L276.5 218.3L273.3 215.2C273.1 215 273 214.7 273.1 214.4C273.2 214.1 273.4 213.9 273.8 213.9L278.3 213.8H278.6C279.2 213.9 279.5 214.3 279.6 215Z" fill="#2D2979"/>
<path d="M276.9 218.6C276.8 218.5 276.7 218.4 276.6 218.3L276.9 218.6Z" fill="#FFF5E6"/>
<path d="M278.7 213.8H278.4L273.9 213.9C273.6 213.9 273.3 214.1 273.2 214.4C273.3 214.3 276.2 214.8 279.6 215.4C279.6 215.3 279.6 215.1 279.6 215C279.5 214.3 279.2 213.9 278.7 213.8Z" fill="#1A1A5B"/>
<path d="M355.3 242.4C355.4 244.3 352.9 250.5 350.3 249.5C349.1 249 344.4 247.1 344.4 247.1C344.1 247.5 343.7 247.8 343.3 248.1C342.1 249 340.9 249.3 340 249L348 252.2C349 252.7 350.3 252.4 351.6 251.4C354 249.5 355.6 245.5 355.3 242.4Z" fill="#BA3DEA"/>
<path d="M344.4 247.1C344.2 247.3 344.1 247.5 343.9 247.7C343.8 247.8 343.7 247.9 343.6 247.9C343.5 248 343.4 248.1 343.3 248.2C342.1 249.1 340.9 249.4 340 249.1L339.8 249L337.1 247.9C337.6 248.1 338.1 248.1 338.7 247.9C339.3 247.8 339.9 247.5 340.5 247C340.9 246.7 341.2 246.4 341.6 246L344.4 247.1Z" fill="#B8E2FF"/>
<path d="M338.6 244.7C338.4 244.9 338.2 245.2 337.9 245.4C337.8 245.5 337.6 245.6 337.5 245.8C336.9 246.3 336.3 246.6 335.7 246.7C335.1 246.8 334.6 246.8 334.1 246.7L333.9 246.6L331.2 245.5C331.7 245.7 332.2 245.7 332.8 245.5C333.4 245.4 334 245.1 334.6 244.6C334.7 244.5 334.9 244.4 335 244.2C335.2 244 335.4 243.8 335.6 243.5L338.6 244.7Z" fill="#B8E2FF"/>
<path d="M288.3 224.4L288 225.6C287.9 225.8 287.8 225.9 287.6 226C286.5 226.8 285.4 226.8 285.3 226.8L276.9 218.6C277.3 218.8 277.8 218.8 278.3 218.4C278.5 218.3 278.6 218.1 278.8 217.9L288.3 224.4Z" fill="#7DCCFF"/>
<path d="M308.4 236.4C308.7 240.9 312 242.6 315.8 240C319.6 237.5 322.5 231.7 322.2 227.2C321.9 222.8 318.8 221.1 315.2 223.3" stroke="#71BFFF" stroke-miterlimit="10" stroke-linecap="round"/>
<path d="M295.1 231C295.4 235.5 298.7 237.2 302.5 234.6C306.3 232.1 309.2 226.3 308.9 221.8C308.6 217.4 305.5 215.8 301.9 217.9" stroke="#71BFFF" stroke-miterlimit="10" stroke-linecap="round"/>
<path d="M509.2 289.4L430.8 246.4C427.2 244.3 422.8 244.3 419.1 246.3L355.4 279.2V284.1C355.4 285.7 356.2 287.4 357.8 288.3L437.3 334.2C438.7 335 440.5 335.1 442 334.3L506.8 298.7C508.5 297.8 509.3 296.1 509.3 294.5L509.2 289.4Z" fill="#4296EA"/>
<path d="M506.7 293.9L442 329.5C440.5 330.3 438.8 330.3 437.3 329.4L357.8 283.5C354.6 281.6 354.6 277 357.9 275.2L419.1 241.5C422.8 239.5 427.2 239.5 430.8 241.6L506.8 285.5C510.1 287.4 510 292.1 506.7 293.9Z" fill="#1A5FC4"/>
<path d="M506.7 291L442 326.6C440.5 327.4 438.8 327.4 437.3 326.5L357.8 280.6C354.6 278.7 354.6 274.1 357.9 272.3L419.1 238.6C422.8 236.6 427.2 236.6 430.8 238.7L506.8 282.6C510.1 284.5 510 289.2 506.7 291Z" stroke="#71BFFF" stroke-width="0.5" stroke-miterlimit="10"/>
<path d="M508.8 290C508.4 290.9 507.7 291.6 506.8 292.1L442 327.7C440.5 328.5 438.8 328.5 437.3 327.6L357.8 281.7C357 281.2 356.4 280.6 356 279.8" stroke="#0E52A5" stroke-width="0.5" stroke-miterlimit="10"/>
<path d="M419.5 340.7L341.1 297.7C337.5 295.6 333.1 295.6 329.4 297.6L286.4 319.2V324.1C286.4 325.7 287.2 327.4 288.8 328.3L368.3 374.2C369.7 375 371.5 375.1 373 374.3L417 350C418.7 349.1 419.5 347.4 419.5 345.8V340.7Z" fill="#4296EA"/>
<path d="M417 345.1L372.9 369.4C371.4 370.2 369.7 370.2 368.2 369.3L288.7 323.4C285.5 321.5 285.5 316.9 288.8 315.1L329.3 292.8C333 290.8 337.4 290.8 341 292.9L417 336.8C420.3 338.7 420.3 343.4 417 345.1Z" fill="#1A5FC4"/>
<path d="M417 342.2L372.9 366.5C371.4 367.3 369.7 367.3 368.2 366.4L288.7 320.5C285.5 318.6 285.5 314 288.8 312.2L329.3 289.9C333 287.9 337.4 287.9 341 290L417 333.9C420.3 335.8 420.3 340.4 417 342.2Z" stroke="#71BFFF" stroke-width="0.5" stroke-miterlimit="10"/>
<path d="M419 341.2C418.6 342.1 417.9 342.8 417 343.3L372.9 367.6C371.4 368.4 369.7 368.4 368.2 367.5L288.7 321.6C287.9 321.1 287.3 320.5 286.9 319.7" stroke="#0E52A5" stroke-width="0.5" stroke-miterlimit="10"/>
<path d="M484.5 229.4C484.4 230 484.1 230.6 483.7 231.1C483.2 231.7 482.6 232.2 481.8 232.7L465.6 242.1C465.5 242.2 465.3 242.3 465.2 242.3C461.8 244 457 244.2 454.2 242.5L454 242.4L436 232.2C435.6 232 435.2 231.7 434.9 231.4C434.3 230.8 434 230.2 434 229.5C434 229.4 434 229.3 434 229.2V219.3C434 220 434.3 220.6 434.9 221.2L435 221.3C435.4 220.8 436 220.3 436.8 219.9L453 210.5C456.4 208.5 461.5 208.3 464.4 210L482.4 220.4C482.8 220.6 483.1 220.9 483.4 221.1C483.5 221 483.5 221 483.5 220.9C484 220.3 484.2 219.7 484.3 219.2V228.5C484.5 228.9 484.5 229.1 484.5 229.4Z" fill="#4296EA"/>
<path d="M465 232.2V242.4C461.6 244.1 456.8 244.3 454 242.6L453.8 242.5V232.3L454 232.4C456.9 234 461.7 233.9 465 232.2Z" fill="#53AAF2"/>
<path d="M484.5 219.3C484.4 219.9 484.1 220.6 483.5 221.2C483.1 221.7 482.5 222.2 481.7 222.6L465.5 232C462.1 234 457 234.2 454.1 232.5L436 222C435.6 221.8 435.3 221.5 435 221.3C434.4 220.7 434 220 434 219.3V219C434.1 217.8 435 216.5 436.8 215.4L453 206C456.4 204.1 461.5 203.8 464.4 205.5L482.4 215.9C483.6 216.6 484.2 217.4 484.3 218.3C484.5 218.7 484.5 219 484.5 219.3Z" fill="#1A5FC4"/>
<path d="M484.5 217.4C484.4 218 484.1 218.7 483.5 219.3C483.1 219.8 482.5 220.3 481.7 220.7L465.5 230.1C462.1 232.1 457 232.3 454.1 230.6L436.1 220.2C435.7 220 435.4 219.7 435.1 219.5C434.5 218.9 434.1 218.2 434.1 217.5V217.2C434.2 216 435.1 214.7 436.9 213.6L453.1 204.2C456.5 202.3 461.6 202 464.5 203.7L482.5 214.1C483.7 214.8 484.3 215.6 484.4 216.5C484.5 216.9 484.5 217.1 484.5 217.4Z" stroke="#FBC445" stroke-width="0.4225" stroke-miterlimit="10"/>
<path d="M484.5 229.4C484.4 230 484.1 230.6 483.7 231.1V221C484.2 220.4 484.4 219.8 484.5 219.3V228.6C484.5 228.9 484.5 229.1 484.5 229.4Z" fill="#53AAF2"/>
<path d="M435 221.2V231.4C434.4 230.8 434.1 230.2 434.1 229.5C434.1 229.4 434.1 229.3 434.1 229.2V219.3C434.1 220 434.4 220.6 435 221.2Z" fill="#53AAF2"/>
<path d="M522.7 251.4C522.6 252 522.3 252.6 521.9 253.1C521.4 253.7 520.8 254.2 520 254.7L503.8 264.1C503.7 264.2 503.5 264.3 503.4 264.3C500 266 495.2 266.2 492.4 264.5L492.2 264.4L474.3 254.1C473.9 253.9 473.5 253.6 473.2 253.3C472.6 252.7 472.3 252.1 472.3 251.4C472.3 251.3 472.3 251.2 472.3 251.1V244.1C472.3 244.8 472.6 245.4 473.2 246L473.3 246.1C473.7 245.6 474.3 245.1 475.1 244.7L491.3 235.3C494.7 233.3 499.8 233.1 502.7 234.8L520.7 245.2C521.1 245.4 521.4 245.7 521.7 245.9C521.8 245.8 521.8 245.8 521.8 245.7C522.3 245.1 522.5 244.5 522.6 244V250.5C522.7 250.8 522.7 251.1 522.7 251.4Z" fill="#4296EA"/>
<path d="M503.3 257V264.3C499.9 266 495.1 266.2 492.3 264.5L492.1 264.4V257.1L492.3 257.2C495.1 258.8 499.9 258.7 503.3 257Z" fill="#53AAF2"/>
<path d="M522.7 244.1C522.6 244.7 522.3 245.4 521.7 246C521.3 246.5 520.7 247 519.9 247.4L503.7 256.8C500.3 258.8 495.2 259 492.3 257.3L474.3 246.9C473.9 246.7 473.6 246.4 473.3 246.2C472.7 245.6 472.3 244.9 472.3 244.2V243.9C472.4 242.7 473.3 241.4 475.1 240.3L491.3 230.9C494.7 229 499.8 228.7 502.7 230.4L520.7 240.8C521.9 241.5 522.5 242.3 522.6 243.2C522.7 243.5 522.7 243.8 522.7 244.1Z" fill="#1A5FC4"/>
<path d="M522.7 242.2C522.6 242.8 522.3 243.5 521.7 244.1C521.3 244.6 520.7 245.1 519.9 245.5L503.7 254.9C500.3 256.9 495.2 257.1 492.3 255.4L474.3 245C473.9 244.8 473.6 244.5 473.3 244.3C472.7 243.7 472.3 243 472.3 242.3V242C472.4 240.8 473.3 239.5 475.1 238.4L491.3 229C494.7 227.1 499.8 226.8 502.7 228.5L520.7 238.9C521.9 239.6 522.5 240.4 522.6 241.3C522.7 241.7 522.7 241.9 522.7 242.2Z" stroke="#DB8FFF" stroke-width="0.4225" stroke-miterlimit="10"/>
<path d="M522.7 251.4C522.6 252 522.3 252.6 521.9 253.1V245.8C522.4 245.2 522.6 244.6 522.7 244.1V250.6C522.7 250.8 522.7 251.1 522.7 251.4Z" fill="#53AAF2"/>
<path d="M473.2 246V253.3C472.6 252.7 472.3 252.1 472.3 251.4C472.3 251.3 472.3 251.2 472.3 251.1V244.1C472.3 244.8 472.6 245.4 473.2 246Z" fill="#53AAF2"/>
<path d="M456 219.4C454.2 218.4 454.2 216.7 456 215.7C457.8 214.7 460.7 214.7 462.4 215.7C464.1 216.7 464.2 218.4 462.4 219.4C460.7 220.4 457.8 220.4 456 219.4ZM461.1 216.5C460.1 215.9 458.4 215.9 457.4 216.5C456.4 217.1 456.4 218 457.4 218.6C458.4 219.2 460.1 219.2 461.1 218.6C462.1 218 462.1 217.1 461.1 216.5Z" fill="#FBC445"/>
<path d="M459.5 224.6L447 217.4C445.9 216.7 445.8 215.7 447 215L453.9 211C455 210.3 456.9 210.3 458 211L460.1 212.2L462.9 211.7C463.7 211.5 464.6 211.7 465.2 212L468.7 214C469.3 214.4 469.5 214.9 469.3 215.3L468.4 216.9L470.5 218.1C471.6 218.8 471.7 219.8 470.5 220.5L463.6 224.5C462.5 225.2 460.7 225.2 459.5 224.6ZM456.7 211.8C456.3 211.6 455.7 211.6 455.3 211.8L448.4 215.8C448 216 448 216.4 448.4 216.6L460.9 223.8C461.3 224 461.9 224 462.3 223.8L469.2 219.8C469.6 219.6 469.6 219.2 469.2 219L466.7 217.5C466.4 217.3 466.3 217.1 466.5 216.9L467.6 215C467.6 214.9 467.6 214.9 467.5 214.8L464 212.8C463.9 212.7 463.8 212.7 463.7 212.8L460.3 213.4C459.9 213.5 459.6 213.4 459.3 213.3L456.7 211.8Z" fill="#FBC445"/>
<path d="M508.9 240.6L499.4 235.1C498.2 234.4 496.1 234.4 494.9 235.1L488.1 239.1C486.9 239.8 486.9 241 488.1 241.7L496.5 246.5V249.3C496.5 249.4 496.6 249.5 496.7 249.6C497 249.8 497.5 249.8 497.8 249.6L508.9 243.2C510.2 242.5 510.2 241.3 508.9 240.6ZM498 248.3V246.4C498 246.3 497.9 246.2 497.8 246.1L489.2 241.1C488.5 240.7 488.5 240.1 489.2 239.7L496 235.7C496.6 235.3 497.7 235.3 498.4 235.7L507.9 241.2C508.6 241.6 508.6 242.2 507.9 242.6L498 248.3Z" fill="#DB8FFF"/>
<path d="M499.5 240.6C499 240.3 498.1 240.3 497.6 240.6C497.1 240.9 497.1 241.4 497.6 241.7C498.1 242 499 242 499.5 241.7C500 241.4 500 240.9 499.5 240.6Z" fill="#DB8FFF"/>
<path d="M502.5 242.3C502 242 501.1 242 500.6 242.3C500.1 242.6 500.1 243.1 500.6 243.4C501.1 243.7 502 243.7 502.5 243.4C503.1 243.2 503 242.7 502.5 242.3Z" fill="#DB8FFF"/>
<path d="M496.5 238.9C496 238.6 495.1 238.6 494.6 238.9C494.1 239.2 494.1 239.7 494.6 240C495.1 240.3 496 240.3 496.5 240C497 239.7 497 239.2 496.5 238.9Z" fill="#DB8FFF"/>
<path d="M557.1 270.9C557 271.5 556.7 272.2 556.1 272.8C555.7 273.3 555.1 273.8 554.3 274.2L538.1 283.6C534.7 285.6 529.6 285.8 526.7 284.1L508.7 273.7C508.3 273.5 508 273.2 507.7 273C507.1 272.4 506.7 271.7 506.7 271V270.7C506.8 269.5 507.7 268.2 509.5 267.1L525.7 257.7C529.1 255.8 534.2 255.5 537.1 257.2L555.1 267.6C556.3 268.3 556.9 269.1 557 270C557.2 270.3 557.2 270.6 557.1 270.9Z" stroke="#1A5FC4" stroke-miterlimit="10" stroke-linecap="round" stroke-linejoin="round" stroke-dasharray="2 2"/>
<path d="M539.4 272.4L534.6 269.7L539.3 266.9L537.6 265.9L532.9 268.7L528.1 265.9L526.4 266.9L531.1 269.7L526.4 272.4L528.1 273.4L532.9 270.7L537.6 273.4L539.4 272.4Z" fill="#1A5FC4"/>
<path d="M488.3 281C481.7 277.2 471.1 277.2 464.6 280.9C462.2 282.3 459.8 284.8 459.7 284.3V287.5C459.6 290.1 461.2 292.7 464.6 294.7C471.2 298.5 481.8 298.5 488.3 294.7C491.4 292.9 493.1 290.5 493.2 288.1V287.6V284.4C493.3 285 490.8 282.5 488.3 281ZM459.9 286.7V286.8C459.8 286.8 459.8 286.7 459.9 286.7Z" fill="#2473D1"/>
<path d="M493.3 284V284.5C493.3 285 493.2 285.6 493 286.1C492.4 287.9 490.9 289.7 488.4 291.1C481.9 294.9 471.2 294.9 464.7 291.1C462.2 289.7 460.7 287.9 460.1 286C459.1 283 460.6 279.7 464.7 277.4C471.2 273.6 481.9 273.6 488.4 277.4C491.5 279.2 493.2 281.6 493.3 284Z" fill="#4296EA"/>
<path d="M349.5 328.9C344.4 326 336.2 325.9 331.1 328.9C329.2 330 327.3 331.9 327.3 331.5V334C327.2 336 328.5 338 331.1 339.6C336.2 342.5 344.4 342.6 349.5 339.6C351.9 338.2 353.2 336.3 353.3 334.5V334.1V331.6C353.3 332 351.4 330 349.5 328.9ZM327.4 333.3C327.4 333.4 327.4 333.4 327.4 333.3C327.4 333.4 327.4 333.4 327.4 333.3Z" fill="#BA3DEA"/>
<path d="M353.4 331.3V331.7C353.4 332.1 353.3 332.5 353.2 332.9C352.7 334.3 351.5 335.7 349.6 336.8C344.5 339.7 336.3 339.7 331.2 336.8C329.3 335.7 328.1 334.3 327.6 332.9C326.8 330.5 328 328 331.1 326.2C336.2 323.3 344.4 323.3 349.5 326.2C352 327.5 353.3 329.4 353.4 331.3Z" fill="#D478FF"/>
<path d="M475.7 284.7C479 286.6 484.3 286.6 487.6 284.7C489.2 283.8 490 282.5 490 281.3C490 280.9 490 278.5 490 278.5C490 278.5 488.7 278.5 487.5 277.8C484.2 275.9 478.9 275.9 475.6 277.8C474.5 278.5 473.2 278.6 473.2 278.6C473.2 278.6 473.2 280.8 473.2 281.1C473.2 282.4 474 283.7 475.7 284.7Z" fill="#9FD4FF"/>
<path d="M475.7 282C479 283.9 484.3 283.9 487.6 282C490.9 280.1 490.8 277 487.6 275.1C484.4 273.2 479 273.2 475.7 275.1C472.4 277 472.4 280.1 475.7 282Z" fill="white"/>
<path d="M481.8 288.7L481.4 289.6C481.1 288.9 480.5 288.2 479.7 287.6C479.5 287.4 479.1 287.3 478.8 287.3C476.9 287.1 475.2 286.6 473.8 285.8C472.4 285 471.6 284 471.3 282.9C471.2 282.7 471 282.5 470.7 282.4C468.3 281.4 465.3 281 462.4 281.3C461.8 281.4 461.2 281.5 460.7 281.6C460.5 281.6 460.3 281.8 460.2 281.9C460.1 282.1 460.1 282.3 460 282.4L459.7 281.3V283.8C459.7 283.9 459.7 284.1 459.7 284.2C459.7 284.6 459.8 285.1 459.9 285.5C460.4 287.6 462.1 289.5 464.6 290.9C467.1 292.4 470.4 293.3 474 293.6C474.7 293.7 475.5 293.7 476.2 293.7C477 293.7 477.9 293.7 478.7 293.6C479.3 293.6 479.9 293.5 480.4 293.4C480.7 293.4 480.9 293.3 481 293.2C481.2 292.9 481.4 292.6 481.5 292.2C481.6 291.9 481.7 291.5 481.7 291.2V288.7H481.8Z" fill="#9FD4FF"/>
<path d="M481.1 290.6C481.3 290.3 481.5 290 481.6 289.6C482.2 287.9 481.5 286.2 479.7 284.8C479.5 284.6 479.1 284.5 478.8 284.5C476.9 284.3 475.2 283.8 473.8 283C472.4 282.2 471.6 281.2 471.3 280.1C471.2 279.9 471 279.7 470.7 279.6C468.3 278.6 465.3 278.2 462.4 278.5C461.8 278.6 461.2 278.7 460.7 278.8C460.5 278.8 460.3 279 460.2 279.1C460 279.4 459.9 279.8 459.9 280.1C459.8 280.6 459.7 281.1 459.8 281.6C459.8 282 459.9 282.5 460 282.9C460.5 285 462.2 286.9 464.7 288.3C467.2 289.8 470.5 290.7 474.1 291C474.8 291.1 475.6 291.1 476.3 291.1C477.1 291.1 478 291.1 478.8 291C479.4 291 480 290.9 480.5 290.8C480.9 290.8 481.1 290.7 481.1 290.6Z" fill="white"/>
<path d="M452 267.4L421.3 249.7C420.9 249.5 420.9 249 421.4 248.8C421.9 248.5 422.6 248.5 423 248.7L453.7 266.4C454.1 266.6 454.1 267.1 453.6 267.3C453.1 267.6 452.4 267.7 452 267.4Z" fill="#4296EA"/>
<path d="M441.5 273.2L410.8 255.5C410.4 255.3 410.4 254.8 410.9 254.6C411.4 254.3 412.1 254.3 412.5 254.5L443.2 272.2C443.6 272.4 443.6 272.9 443.1 273.1C442.6 273.4 441.9 273.4 441.5 273.2Z" fill="#4296EA"/>
<path d="M459.2 300.1L396.2 263.6C395.8 263.4 395.8 262.9 396.3 262.7C396.8 262.4 397.5 262.4 397.9 262.6L460.9 299.1C461.3 299.3 461.3 299.8 460.8 300C460.4 300.3 459.6 300.3 459.2 300.1Z" fill="#4296EA"/>
<path d="M452.3 303.5L389.3 267C388.9 266.8 388.9 266.3 389.4 266.1C389.9 265.8 390.6 265.8 391 266L454 302.5C454.4 302.7 454.4 303.2 453.9 303.4C453.4 303.7 452.7 303.8 452.3 303.5Z" fill="#4296EA"/>
<path d="M399.9 336L336.9 299.5C336.5 299.3 336.5 298.8 337 298.6C337.5 298.3 338.2 298.3 338.6 298.5L401.6 335C402 335.2 402 335.7 401.5 335.9C401.1 336.2 400.4 336.2 399.9 336Z" fill="#4296EA"/>
<path d="M393.3 339.6L330.3 303.1C329.9 302.9 329.9 302.4 330.4 302.2C330.9 301.9 331.6 301.9 332 302.1L395 338.6C395.4 338.8 395.4 339.3 394.9 339.5C394.4 339.8 393.7 339.8 393.3 339.6Z" fill="#4296EA"/>
<path d="M385.8 343.8L322.8 307.3C322.4 307.1 322.4 306.6 322.9 306.4C323.4 306.1 324.1 306.1 324.5 306.3L387.5 342.8C387.9 343 387.9 343.5 387.4 343.7C386.9 344 386.2 344 385.8 343.8Z" fill="#4296EA"/>
<path d="M438.3 303.7C437.9 303.2 437.4 302.8 436.7 302.4L397.1 279.5C395.5 278.6 393.4 278.1 391.2 278.1C388.5 278.1 385.7 278.8 383.5 280C382.4 280.7 381.5 281.4 380.9 282.2C380.4 281.6 380.2 281 380.1 280.4V284.2V284.6C380.1 285.8 380.9 287 382.5 287.9L422.1 310.8C423.7 311.7 425.8 312.2 428 312.2C430.7 312.2 433.5 311.5 435.7 310.3C437.9 309 439 307.4 439 305.8V301.4C439.1 302.2 438.8 303 438.3 303.7Z" fill="#D83460"/>
<path d="M439.1 301.4C439.1 302.2 438.8 302.9 438.3 303.7C437.7 304.5 436.9 305.2 435.7 305.9C433.5 307.2 430.7 307.8 428 307.8C425.8 307.8 423.7 307.4 422.1 306.4L382.5 283.5C381.8 283.1 381.3 282.7 380.9 282.2C380.4 281.6 380.2 281 380.1 280.4V279.8C380.2 278.3 381.4 276.8 383.4 275.6C385.6 274.3 388.4 273.7 391.1 273.7C393.3 273.7 395.4 274.2 397 275.1L436.6 298C438.3 298.9 439.1 300.2 439.1 301.4Z" fill="#ED5A88"/>
<path d="M425.1 301.3C425.1 301.3 391 281.8 390.5 281.5C390 281.2 390.3 279.8 391.2 279.8C392.6 279.8 393.7 280.1 394.1 280.4L427.8 299.2C428.6 299.6 429.2 300.8 428.6 301.5C427.8 302.2 425.5 301.5 425.1 301.3Z" fill="#FFA9C8"/>
<path d="M344 334.1L334.9 333.3C333.4 333.2 332.8 332.1 333.9 331.5L341.6 327.1C342.7 326.5 344.5 326.8 344.7 327.7L346 332.9C346.2 333.7 345.2 334.3 344 334.1Z" fill="white"/>
</svg>
