<svg width="47" height="46" viewBox="0 0 47 46" fill="none" xmlns="http://www.w3.org/2000/svg">
<path d="M46.9361 23.0075C46.9361 23.5808 46.9211 24.1391 46.8758 24.6973C46.7552 26.2663 46.4988 27.7901 46.0765 29.2535C45.1715 32.452 43.5879 35.3788 41.4914 37.8531C41.2954 38.0945 41.0842 38.3358 40.858 38.5621C40.6468 38.8035 40.4206 39.0298 40.1944 39.2561C36.9969 42.4546 32.8643 44.7176 28.2341 45.5927C27.5705 45.7133 26.8918 45.819 26.198 45.8793C25.4589 45.9547 24.6897 45.9849 23.9356 45.9849H0C2.80531 35.062 7.33 27.8203 11.9452 23.0377L11.9603 23.0226C11.719 22.7662 11.4776 22.5097 11.2363 22.2532L11.2212 22.2381C10.4973 21.4536 9.78842 20.5936 9.09463 19.6884C8.31035 18.6625 7.52607 17.531 6.77196 16.324C6.75687 16.309 6.74179 16.2939 6.74179 16.2637C5.80669 14.755 4.90175 13.1256 4.05714 11.3303C2.56399 8.22237 1.22167 4.63168 0.135741 0.543129C0.120658 0.482781 0.105576 0.43752 0.0904938 0.39226C0.0754115 0.301738 0.0603292 0.226304 0.0452469 0.150869C0.0452469 0.120695 0.0301646 0.105608 0.0301646 0.0754346C0.0301646 0.0603477 0.0301646 0.0452607 0.0150823 0.0452607C0 0.0150869 0 0 0 0H23.9356C33.1509 0 41.0993 5.43129 44.7643 13.2614C46.1519 16.2184 46.9361 19.5225 46.9361 23.0075Z" fill="url(#paint0_radial)"/>
<path d="M44.6286 33.0403C43.7839 34.7753 42.7282 36.3896 41.4914 37.853C41.2954 38.0944 41.0842 38.3358 40.858 38.5621C40.6468 38.8035 40.4206 39.0298 40.1944 39.2561C36.9969 42.4545 32.8643 44.7176 28.2341 45.5926C27.5705 45.7133 26.8918 45.8189 26.198 45.8793C25.4589 45.9547 24.6897 45.9849 23.9356 45.9849H0C0 45.9849 31.5069 46.875 39.4855 31.4411L44.6286 33.0403Z" fill="url(#paint1_linear)"/>
<path d="M23.4228 21.6497C7.91821 23.3847 0.150823 45.6681 0 46C2.80531 35.0922 7.33 27.8354 11.9452 23.0528L11.9603 23.0377C11.719 22.7812 11.4776 22.5248 11.2363 22.2683L11.2212 22.2532C10.4973 21.4687 9.78842 20.6087 9.09463 19.7035C8.7779 19.2962 8.46117 18.8737 8.15953 18.4362L23.4228 21.6497Z" fill="url(#paint2_linear)"/>
<path opacity="0.58" d="M0 46C0.663622 44.4913 1.35741 42.9977 2.09644 41.5192L2.65449 40.4179C2.83547 40.0558 3.04663 39.6937 3.22761 39.3316C3.42368 38.9695 3.61975 38.6074 3.81582 38.2454C4.01189 37.8833 4.22305 37.5212 4.4342 37.1742C5.24864 35.7409 6.15358 34.368 7.08869 33.0102L7.79755 31.9994C8.03887 31.6675 8.29527 31.3506 8.53659 31.0187L8.91364 30.5209L9.30579 30.0381C9.56218 29.7212 9.81858 29.3893 10.0901 29.0725C3.45385 36.1784 0.105576 45.7888 0 46Z" fill="url(#paint3_linear)"/>
<path d="M8.92871 26.5982C24.931 39.2712 40.873 38.5772 40.873 38.5772C40.873 38.5772 40.873 38.5772 40.873 38.5621C41.0088 38.3811 43.1957 35.5448 43.256 35.3335C43.3315 35.1223 37.7208 23.0075 37.7208 23.0075L14.9767 19.2811L11.5379 22.57" fill="url(#paint4_linear)"/>
<path d="M46.8758 24.6973C46.7702 26.1154 46.544 27.5185 46.182 28.8613C46.1519 28.997 46.1066 29.1328 46.0765 29.2686C44.9905 33.1007 43.603 35.8465 40.8731 38.5772C27.2537 35.9219 18.0988 29.7363 11.9603 23.0679C11.719 22.8114 11.4776 22.5398 11.2514 22.2834L11.2363 22.2683C9.50185 20.307 8.03887 18.3004 6.77196 16.3542C6.75687 16.3391 6.74179 16.324 6.74179 16.2939C5.80669 14.7852 4.90175 13.1558 4.05714 11.3604C2.56399 8.22237 1.22167 4.63168 0.135741 0.543129L0.120658 0.452607C0.120658 0.422434 0.105576 0.407347 0.105576 0.377173C0.0754115 0.301738 0.0603292 0.226304 0.0452469 0.150869L0.0150823 0.0452607C0 0.0150869 0 0 0 0H23.9356C33.6185 0 41.8987 5.9895 45.2922 14.4683C46.1217 16.5503 46.6647 18.7832 46.8456 21.1066C46.906 21.7252 46.906 24.1391 46.8758 24.6973Z" fill="url(#paint5_linear)"/>
<path d="M41.5367 37.8681C41.3256 38.1095 41.0993 38.3358 40.8731 38.5772C27.2538 35.9219 18.0988 29.7363 11.9603 23.0679C11.719 22.8114 11.4777 22.5398 11.2515 22.2833L11.2364 22.2682C9.50191 20.307 8.03892 18.3004 6.77201 16.3542C6.75693 16.3391 6.74185 16.324 6.74185 16.2938C5.80674 14.7851 4.9018 13.1558 4.0572 11.3604C2.56405 8.22233 1.22172 4.63165 0.135795 0.543095L0.120713 0.452574C0.120713 0.4224 0.105631 0.407313 0.105631 0.377139C0.075466 0.301705 0.0603836 0.22627 0.0453013 0.150835L0.0151367 0.0452271L0.0453013 0.150835C0.0603836 0.22627 0.0905483 0.301705 0.105631 0.377139C0.105631 0.407313 0.120713 0.4224 0.120713 0.452574L0.150878 0.528008C1.28205 4.61656 2.66962 8.19216 4.19294 11.285C5.06771 13.0652 5.98773 14.6946 6.953 16.1882C6.96808 16.2033 6.98316 16.2184 6.98316 16.2486C8.26516 18.1797 9.75831 20.1561 11.5079 22.1023L11.5229 22.1174C11.7492 22.3739 11.9905 22.6303 12.2469 22.9019C18.31 29.344 28.3548 35.2883 41.5367 37.8681Z" fill="url(#paint6_radial)"/>
<path d="M46.8608 21.1066C16.7263 21.8458 0.0151367 0.0452607 0.0151367 0.0452607L0.36203 0H23.9357C33.7543 0.0452607 41.8987 5.9895 45.2922 14.4683C46.1218 16.5503 46.6647 18.7832 46.8608 21.1066Z" fill="url(#paint7_linear)"/>
<path d="M46.9362 23.0075C46.9362 23.5808 46.9211 24.139 46.8759 24.6972C46.7703 26.1154 46.5441 27.5185 46.1821 28.8612C16.1381 26.8698 0.135795 0.543095 0.135795 0.543095L0.120713 0.452574L0.0453013 0.150835L0.0151367 0.0452271C15.4594 15.283 34.9307 15.6451 45.3073 14.4683C46.348 17.1085 46.9362 19.9901 46.9362 23.0075Z" fill="url(#paint8_linear)"/>
<path d="M5.68604 7.84521C6.31949 8.58447 6.96803 9.32373 7.63165 10.0328C7.96346 10.3949 8.29527 10.7419 8.64217 11.0889C8.98906 11.4359 9.32087 11.7829 9.66776 12.1299C11.0704 13.4877 12.5183 14.8003 14.0266 16.0374C17.043 18.5267 20.3008 20.7144 23.7396 22.57C27.1783 24.4257 30.8132 25.9193 34.5837 26.9754C36.469 27.5035 38.3694 27.941 40.2999 28.2578C42.2305 28.5595 44.161 28.7708 46.1217 28.8613C26.4242 27.5487 12.7596 15.796 5.68604 7.84521Z" fill="url(#paint9_radial)"/>
<path d="M45.2318 14.4684C44.7492 14.5136 44.2515 14.5589 43.7688 14.5891C43.2862 14.6343 42.7885 14.6494 42.3058 14.6796C41.3255 14.7248 40.3602 14.755 39.3799 14.755C37.4343 14.7701 35.4736 14.7248 33.543 14.5589C29.6669 14.2421 25.8058 13.6084 22.0503 12.5523C20.1801 12.0394 18.325 11.4057 16.5151 10.6966C14.7052 9.97247 12.9406 9.14269 11.2212 8.23747C7.78243 6.41196 4.58498 4.14892 1.61377 1.61432C16.7715 15.2981 35.2322 15.5999 45.2318 14.4684Z" fill="url(#paint10_radial)"/>
<path d="M0 46C0 46 6.24408 36.1935 16.6207 31.4562C16.6207 31.4562 21.809 35.1978 26.7711 36.1935C26.7862 36.1935 17.5256 44.5668 0 46Z" fill="url(#paint11_linear)"/>
<path d="M3.96681 41.2476C4.26846 40.9157 4.58519 40.5989 4.90192 40.2821C5.21865 39.9652 5.53538 39.6484 5.8521 39.3467C6.50064 38.7281 7.14918 38.1095 7.82789 37.5362C7.99379 37.3854 8.1597 37.2345 8.3256 37.0987L8.8384 36.6763L9.3512 36.2539C9.5171 36.103 9.69809 35.9823 9.87908 35.8465L10.407 35.4392C10.5879 35.3034 10.7539 35.1676 10.9348 35.0318C11.2968 34.7753 11.6588 34.5189 12.0208 34.2473C13.4988 33.2365 15.0372 32.3162 16.6209 31.4713C7.88822 35.4693 2.08153 43.0279 0.452637 45.3362C1.01068 44.6271 1.56873 43.9331 2.15694 43.2542C2.76023 42.5602 3.36352 41.8964 3.96681 41.2476Z" fill="url(#paint12_linear)"/>
<path opacity="0.4" d="M32.2912 6.44216C27.6458 4.39034 14.9013 5.08433 16.5151 2.68552C17.4803 1.26735 24.9008 -0.603432 33.0151 3.06269C35.0512 3.98299 37.9018 6.36672 37.0119 7.36246C35.5791 8.94658 33.7541 6.81933 32.2912 6.44216Z" fill="url(#paint13_linear)"/>
<defs>
<radialGradient id="paint0_radial" cx="0" cy="0" r="1" gradientUnits="userSpaceOnUse" gradientTransform="translate(23.4667 30.9228) rotate(-55.5775) scale(26.0087 57.3302)">
<stop stop-color="#002E96"/>
<stop offset="0.0796" stop-color="#1143A7"/>
<stop offset="0.1792" stop-color="#2157B6"/>
<stop offset="0.2807" stop-color="#2A62BF"/>
<stop offset="0.386" stop-color="#2D66C2"/>
<stop offset="1" stop-color="#BA3DEA"/>
</radialGradient>
<linearGradient id="paint1_linear" x1="1.27626" y1="46.248" x2="35.7275" y2="38.1008" gradientUnits="userSpaceOnUse">
<stop stop-color="#B600E1"/>
<stop offset="0.0521" stop-color="#AE10E0" stop-opacity="0.9479"/>
<stop offset="0.2045" stop-color="#993BDC" stop-opacity="0.7955"/>
<stop offset="0.3598" stop-color="#885ED9" stop-opacity="0.6402"/>
<stop offset="0.516" stop-color="#7B79D6" stop-opacity="0.484"/>
<stop offset="0.6738" stop-color="#728DD4" stop-opacity="0.3262"/>
<stop offset="0.8339" stop-color="#6C98D3" stop-opacity="0.1661"/>
<stop offset="1" stop-color="#6A9CD3" stop-opacity="0"/>
</linearGradient>
<linearGradient id="paint2_linear" x1="-0.33513" y1="45.5177" x2="12.7664" y2="24.8346" gradientUnits="userSpaceOnUse">
<stop stop-color="#F21EFF"/>
<stop offset="0.1516" stop-color="#CB42F2" stop-opacity="0.8484"/>
<stop offset="0.3158" stop-color="#A862E7" stop-opacity="0.6842"/>
<stop offset="0.4828" stop-color="#8D7CDE" stop-opacity="0.5172"/>
<stop offset="0.6514" stop-color="#798ED8" stop-opacity="0.3486"/>
<stop offset="0.8225" stop-color="#6E98D4" stop-opacity="0.1775"/>
<stop offset="1" stop-color="#6A9CD3" stop-opacity="0"/>
</linearGradient>
<linearGradient id="paint3_linear" x1="-0.303758" y1="46.169" x2="6.03373" y2="35.0819" gradientUnits="userSpaceOnUse">
<stop offset="0.1236" stop-color="#FF5CF8"/>
<stop offset="1" stop-color="#D22EFF" stop-opacity="0"/>
</linearGradient>
<linearGradient id="paint4_linear" x1="41.3404" y1="34.2815" x2="13.1201" y2="20.6554" gradientUnits="userSpaceOnUse">
<stop stop-color="#002E96"/>
<stop offset="0.0206" stop-color="#002E96" stop-opacity="0.9815"/>
<stop offset="1" stop-color="#002E96" stop-opacity="0.1"/>
</linearGradient>
<linearGradient id="paint5_linear" x1="1.75875" y1="-0.453814" x2="46.8278" y2="29.0552" gradientUnits="userSpaceOnUse">
<stop stop-color="#D83460"/>
<stop offset="1" stop-color="#FBC445"/>
</linearGradient>
<radialGradient id="paint6_radial" cx="0" cy="0" r="1" gradientUnits="userSpaceOnUse" gradientTransform="translate(20.7734 19.3035) scale(20.0252 20.0313)">
<stop offset="0.1236" stop-color="#FFD92A"/>
<stop offset="1" stop-color="#FFFFA9" stop-opacity="0"/>
</radialGradient>
<linearGradient id="paint7_linear" x1="0.585399" y1="0.856635" x2="44.6409" y2="14.4819" gradientUnits="userSpaceOnUse">
<stop stop-color="#E46657"/>
<stop offset="1" stop-color="#FFEAAB"/>
</linearGradient>
<linearGradient id="paint8_linear" x1="-0.0993378" y1="0.566479" x2="44.8211" y2="23.6674" gradientUnits="userSpaceOnUse">
<stop stop-color="#E0565A"/>
<stop offset="1" stop-color="#FFCD46"/>
</linearGradient>
<radialGradient id="paint9_radial" cx="0" cy="0" r="1" gradientUnits="userSpaceOnUse" gradientTransform="translate(25.9043 18.3474) scale(16.1061 16.111)">
<stop offset="0.1236" stop-color="#FFD92A"/>
<stop offset="1" stop-color="#FFFFA9" stop-opacity="0"/>
</radialGradient>
<radialGradient id="paint10_radial" cx="0" cy="0" r="1" gradientUnits="userSpaceOnUse" gradientTransform="translate(23.4222 8.24668) scale(16.1176 16.1225)">
<stop offset="0.1236" stop-color="#FFD92A"/>
<stop offset="1" stop-color="#FFFFA9" stop-opacity="0"/>
</radialGradient>
<linearGradient id="paint11_linear" x1="0.986534" y1="46.8826" x2="19.3793" y2="35.2697" gradientUnits="userSpaceOnUse">
<stop stop-color="#D400FF"/>
<stop offset="0.0521" stop-color="#C910FA" stop-opacity="0.9479"/>
<stop offset="0.2045" stop-color="#AC3BEE" stop-opacity="0.7955"/>
<stop offset="0.3598" stop-color="#945EE5" stop-opacity="0.6402"/>
<stop offset="0.516" stop-color="#8279DD" stop-opacity="0.484"/>
<stop offset="0.6738" stop-color="#748DD7" stop-opacity="0.3262"/>
<stop offset="0.8339" stop-color="#6D98D4" stop-opacity="0.1661"/>
<stop offset="1" stop-color="#6A9CD3" stop-opacity="0"/>
</linearGradient>
<linearGradient id="paint12_linear" x1="0.605269" y1="46.9395" x2="8.09388" y2="38.6613" gradientUnits="userSpaceOnUse">
<stop offset="0.1236" stop-color="#FF5CF8"/>
<stop offset="1" stop-color="#D22EFF" stop-opacity="0"/>
</linearGradient>
<linearGradient id="paint13_linear" x1="28.3524" y1="1.60152" x2="26.8406" y2="4.87639" gradientUnits="userSpaceOnUse">
<stop stop-color="white"/>
<stop offset="1" stop-color="white" stop-opacity="0"/>
</linearGradient>
</defs>
</svg>
