<svg width="584" height="492" viewBox="0 0 584 492" fill="none" xmlns="http://www.w3.org/2000/svg">
<path d="M335.314 0L0 193.052V190.672L331.151 0H335.314ZM277.132 0L0 159.538V161.918L281.295 0H277.132ZM304.092 0L0 175.105V177.485L308.354 0H304.092ZM520.268 0L0 299.543V301.923L524.43 0H520.268ZM250.073 0L0 143.971V146.351L254.236 0H250.073ZM223.113 0L0 128.404V130.784L227.276 0H223.113ZM412.229 0L0 237.374V239.753L416.392 0H412.229ZM466.248 0L0 268.409V270.788L470.411 0H466.248ZM493.308 0L0 283.976V286.355L497.47 0H493.308ZM358.21 0L0 206.239V208.619L362.373 0H358.21ZM439.189 0L0 252.842V255.221L443.451 0H439.189ZM168.995 0L0 97.3688V99.7485L173.257 0H168.995ZM385.17 0L0 221.807V224.186L389.333 0H385.17ZM196.054 0L0 112.837V115.216L200.217 0H196.054ZM0 346.244V348.624L584 12.3942V10.0145L0 346.244ZM574.386 0L0 330.677V333.057L578.549 0H574.386ZM547.327 0L0 315.11V317.49L551.49 0H547.327ZM0 361.811V364.191L584 27.9613V25.5816L0 361.811ZM0 377.378V379.758L584 43.5284V41.1487L0 377.378ZM88.0163 0L0 50.6675V53.0472L92.1792 0H88.0163ZM114.976 0L0 66.2346V68.6143L119.139 0H114.976ZM60.9572 0L0 35.1004V37.48L65.1202 0H60.9572ZM33.8982 0L0 19.5333V21.9129L38.0611 0H33.8982ZM142.035 0L0 81.8017V84.1814L146.198 0H142.035ZM6.93822 0L0 3.96614V6.34583L11.1012 0H6.93822ZM400.732 492H404.895L584 388.88V386.501L400.732 492ZM319.654 492H323.817L584 342.179V339.799L319.654 492ZM0 396.019V398.399L584 62.1693V59.7896L0 396.019ZM346.713 492H350.876L584 357.746V355.366L346.713 492ZM238.675 492H242.838L584 295.577V293.197L238.675 492ZM265.635 492H269.798L584 311.144V308.764L265.635 492ZM292.694 492H296.857L584 326.711V324.232L292.694 492ZM373.772 492H377.935L584 373.313V370.934L373.772 492ZM427.791 492H431.954L584 404.447V402.068L427.791 492ZM535.829 492H539.992L584 466.716V464.336L535.829 492ZM562.888 492H567.051L584 482.184V479.804L562.888 492ZM508.869 492H513.032L584 451.149V448.769L508.869 492ZM481.81 492H485.973L584 435.582V433.202L481.81 492ZM454.751 492H458.914L584 420.015V417.635L454.751 492ZM211.616 492H215.779L584 280.01V277.63L211.616 492ZM0 458.288V460.667L584 124.438V122.058L0 458.288ZM0 473.756V476.135L584 139.906V137.526L0 473.756ZM184.557 492H188.72L584 264.443V262.063L184.557 492ZM0 489.323V491.703L584 155.473V153.093L0 489.323ZM0 411.586V413.966L584 77.7364V75.3567L0 411.586ZM0 427.154V429.533L584 93.3035V90.9238L0 427.154ZM0 442.721V445.1L584 108.871V106.491L0 442.721ZM103.578 492H107.741L584 217.741V215.362L103.578 492ZM130.538 492H134.701L584 233.308V230.929L130.538 492ZM22.4997 492H26.6626L584 171.139V168.759L22.4997 492ZM157.597 492H161.76L584 248.875V246.496L157.597 492ZM49.4596 492H53.6225L584 186.706V184.326L49.4596 492ZM76.5187 492H80.6816L584 202.174V199.794L76.5187 492Z" fill="url(#paint0_linear)"/>
<defs>
<linearGradient id="paint0_linear" x1="592.648" y1="245.985" x2="24.6491" y2="245.985" gradientUnits="userSpaceOnUse">
<stop offset="0.185778" stop-color="#253862"/>
<stop offset="1" stop-color="#061B4A" stop-opacity="0.3"/>
</linearGradient>
</defs>
</svg>
